<svg xmlns="http://www.w3.org/2000/svg" viewBox="0 0 1600 900" role="img" aria-labelledby="title desc">
  <title id="title">ITOps toolkit home hero illustration</title>
  <desc id="desc">Abstract enterprise operations flow with secure cloud and telemetry cards.</desc>
  <defs>
    <linearGradient id="bg" x1="0" y1="0" x2="1" y2="1">
      <stop offset="0%" stop-color="#f7fbff"/>
      <stop offset="100%" stop-color="#edf5ff"/>
    </linearGradient>
    <linearGradient id="card" x1="0" y1="0" x2="1" y2="1">
      <stop offset="0%" stop-color="#1c78ff"/>
      <stop offset="100%" stop-color="#0e55c4"/>
    </linearGradient>
  </defs>
  <rect width="1600" height="900" fill="url(#bg)"/>
  <circle cx="220" cy="160" r="120" fill="#d9ebff"/>
  <circle cx="1390" cy="740" r="150" fill="#dcedff"/>
  <rect x="180" y="210" width="460" height="300" rx="8" fill="#ffffff" stroke="#c7dcf6"/>
  <rect x="230" y="260" width="250" height="26" rx="8" fill="#bfd9ff"/>
  <rect x="230" y="306" width="340" height="16" rx="8" fill="#d7e8ff"/>
  <rect x="230" y="334" width="300" height="16" rx="8" fill="#d7e8ff"/>
  <rect x="230" y="362" width="280" height="16" rx="8" fill="#d7e8ff"/>
  <rect x="720" y="170" width="700" height="430" rx="8" fill="#ffffff" stroke="#c7dcf6"/>
  <rect x="760" y="220" width="220" height="170" rx="8" fill="url(#card)"/>
  <rect x="1020" y="220" width="360" height="70" rx="8" fill="#e5f0ff"/>
  <rect x="1020" y="310" width="360" height="70" rx="8" fill="#e5f0ff"/>
  <rect x="1020" y="400" width="360" height="70" rx="8" fill="#e5f0ff"/>
  <path d="M350 560C530 510 700 490 860 520" fill="none" stroke="#2b82ff" stroke-width="20" stroke-linecap="round"/>
  <path d="M860 520L826 498M860 520L830 545" fill="none" stroke="#2b82ff" stroke-width="20" stroke-linecap="round"/>
  <rect x="560" y="610" width="470" height="140" rx="8" fill="#ffffff" stroke="#c7dcf6"/>
  <rect x="610" y="652" width="220" height="18" rx="9" fill="#cae1ff"/>
  <rect x="610" y="682" width="370" height="16" rx="8" fill="#e3efff"/>
</svg>
