<svg width="24" height="24" viewBox="0 0 24 24" fill="none" xmlns="http://www.w3.org/2000/svg">
  <path d="M5 5.5C5 4.67 5.67 4 6.5 4H17.5C18.33 4 19 4.67 19 5.5V18.5C19 19.33 18.33 20 17.5 20H6.5C5.67 20 5 19.33 5 18.5V5.5Z" stroke="#0C1116" stroke-width="1.5"/>
  <path d="M8 8H16" stroke="#0C1116" stroke-width="1.5" stroke-linecap="round"/>
  <path d="M8 11H16" stroke="#0C1116" stroke-width="1.5" stroke-linecap="round"/>
  <path d="M8 14H12.5" stroke="#0C1116" stroke-width="1.5" stroke-linecap="round"/>
  <path d="M15.2 15.2L16.1 14.3C16.52 13.88 17.2 13.88 17.62 14.3C18.04 14.72 18.04 15.4 17.62 15.82L16.72 16.72L15.2 17.15L15.2 15.2Z" stroke="#0C1116" stroke-width="1.4" stroke-linejoin="round"/>
</svg>
